<svg width="498" height="200" viewBox="0 0 498 200" fill="none" xmlns="http://www.w3.org/2000/svg">
<path d="M0 34.5C0 15.4462 15.4462 0 34.5 0H463.5C482.554 0 498 15.4462 498 34.5C498 53.5538 482.554 69 463.5 69H34.5C15.4462 69 0 53.5538 0 34.5Z" fill="white"/>
<path fill-rule="evenodd" clip-rule="evenodd" d="M463.5 1H34.5C15.9985 1 1 15.9985 1 34.5C1 53.0015 15.9985 68 34.5 68H463.5C482.002 68 497 53.0015 497 34.5C497 15.9985 482.002 1 463.5 1ZM34.5 0C15.4462 0 0 15.4462 0 34.5C0 53.5538 15.4462 69 34.5 69H463.5C482.554 69 498 53.5538 498 34.5C498 15.4462 482.554 0 463.5 0H34.5Z" fill="#CBCBCB"/>
<path d="M190.306 36.1572C190.306 35.2256 190.487 34.3877 190.851 33.6436C191.22 32.8994 191.729 32.3252 192.38 31.9209C193.036 31.5166 193.783 31.3145 194.621 31.3145C195.916 31.3145 196.962 31.7627 197.759 32.6592C198.562 33.5557 198.963 34.748 198.963 36.2363V36.3506C198.963 37.2764 198.784 38.1084 198.427 38.8467C198.075 39.5791 197.568 40.1504 196.906 40.5605C196.25 40.9707 195.494 41.1758 194.639 41.1758C193.35 41.1758 192.304 40.7275 191.501 39.8311C190.704 38.9346 190.306 37.748 190.306 36.2715V36.1572ZM191.94 36.3506C191.94 37.4053 192.184 38.252 192.67 38.8906C193.162 39.5293 193.818 39.8486 194.639 39.8486C195.465 39.8486 196.121 39.5264 196.607 38.8818C197.094 38.2314 197.337 37.3232 197.337 36.1572C197.337 35.1143 197.088 34.2705 196.59 33.626C196.098 32.9756 195.441 32.6504 194.621 32.6504C193.818 32.6504 193.171 32.9697 192.679 33.6084C192.187 34.2471 191.94 35.1611 191.94 36.3506Z" fill="#8E8E8E"/>
<path d="M188.126 41H186.5V31.4902H188.126V41ZM186.368 28.9678C186.368 28.7041 186.447 28.4814 186.605 28.2998C186.77 28.1182 187.01 28.0273 187.326 28.0273C187.643 28.0273 187.883 28.1182 188.047 28.2998C188.211 28.4814 188.293 28.7041 188.293 28.9678C188.293 29.2314 188.211 29.4512 188.047 29.627C187.883 29.8027 187.643 29.8906 187.326 29.8906C187.01 29.8906 186.77 29.8027 186.605 29.627C186.447 29.4512 186.368 29.2314 186.368 28.9678Z" fill="#8E8E8E"/>
<path d="M184.856 32.9492C184.61 32.9082 184.344 32.8877 184.057 32.8877C182.99 32.8877 182.267 33.3418 181.886 34.25V41H180.26V31.4902H181.842L181.868 32.5889C182.401 31.7393 183.157 31.3145 184.136 31.3145C184.452 31.3145 184.692 31.3555 184.856 31.4375V32.9492Z" fill="#8E8E8E"/>
<path d="M176.34 41C176.246 40.8125 176.17 40.4785 176.111 39.998C175.355 40.7832 174.453 41.1758 173.404 41.1758C172.467 41.1758 171.696 40.9121 171.093 40.3848C170.495 39.8516 170.196 39.1777 170.196 38.3633C170.196 37.373 170.571 36.6055 171.321 36.0605C172.077 35.5098 173.138 35.2344 174.503 35.2344H176.085V34.4873C176.085 33.9189 175.915 33.4678 175.575 33.1338C175.235 32.7939 174.734 32.624 174.072 32.624C173.492 32.624 173.006 32.7705 172.613 33.0635C172.221 33.3564 172.024 33.7109 172.024 34.127H170.39C170.39 33.6523 170.557 33.1953 170.891 32.7559C171.23 32.3105 171.688 31.959 172.262 31.7012C172.842 31.4434 173.478 31.3145 174.169 31.3145C175.265 31.3145 176.123 31.5898 176.744 32.1406C177.365 32.6855 177.688 33.4385 177.711 34.3994V38.7764C177.711 39.6494 177.822 40.3438 178.045 40.8594V41H176.34ZM173.642 39.7607C174.151 39.7607 174.635 39.6289 175.092 39.3652C175.549 39.1016 175.88 38.7588 176.085 38.3369V36.3857H174.811C172.818 36.3857 171.822 36.9688 171.822 38.1348C171.822 38.6445 171.992 39.043 172.332 39.3301C172.672 39.6172 173.108 39.7607 173.642 39.7607Z" fill="#8E8E8E"/>
<path d="M166.408 40.0596C165.775 40.8037 164.847 41.1758 163.622 41.1758C162.608 41.1758 161.835 40.8828 161.302 40.2969C160.774 39.7051 160.508 38.832 160.502 37.6777V31.4902H162.128V37.6338C162.128 39.0752 162.714 39.7959 163.886 39.7959C165.128 39.7959 165.954 39.333 166.364 38.4072V31.4902H167.99V41H166.443L166.408 40.0596Z" fill="#8E8E8E"/>
<path d="M156.793 38.4775C156.793 38.0381 156.626 37.6982 156.292 37.458C155.964 37.2119 155.387 37.001 154.561 36.8252C153.74 36.6494 153.087 36.4385 152.601 36.1924C152.12 35.9463 151.763 35.6533 151.528 35.3135C151.3 34.9736 151.186 34.5693 151.186 34.1006C151.186 33.3213 151.514 32.6621 152.17 32.123C152.832 31.584 153.676 31.3145 154.701 31.3145C155.779 31.3145 156.652 31.5928 157.32 32.1494C157.994 32.7061 158.331 33.418 158.331 34.2852H156.696C156.696 33.8398 156.506 33.4561 156.125 33.1338C155.75 32.8115 155.275 32.6504 154.701 32.6504C154.109 32.6504 153.646 32.7793 153.312 33.0371C152.979 33.2949 152.812 33.6318 152.812 34.0479C152.812 34.4404 152.967 34.7363 153.277 34.9355C153.588 35.1348 154.147 35.3252 154.956 35.5068C155.771 35.6885 156.43 35.9053 156.934 36.1572C157.438 36.4092 157.81 36.7139 158.05 37.0713C158.296 37.4229 158.419 37.8535 158.419 38.3633C158.419 39.2129 158.079 39.8955 157.399 40.4111C156.72 40.9209 155.838 41.1758 154.754 41.1758C153.992 41.1758 153.318 41.041 152.732 40.7715C152.146 40.502 151.687 40.127 151.353 39.6465C151.024 39.1602 150.86 38.6357 150.86 38.0732H152.486C152.516 38.6182 152.732 39.0518 153.137 39.374C153.547 39.6904 154.086 39.8486 154.754 39.8486C155.369 39.8486 155.861 39.7256 156.23 39.4795C156.605 39.2275 156.793 38.8936 156.793 38.4775Z" fill="#8E8E8E"/>
<path d="M147.195 40.0596C146.562 40.8037 145.634 41.1758 144.409 41.1758C143.396 41.1758 142.622 40.8828 142.089 40.2969C141.562 39.7051 141.295 38.832 141.289 37.6777V31.4902H142.915V37.6338C142.915 39.0752 143.501 39.7959 144.673 39.7959C145.915 39.7959 146.741 39.333 147.151 38.4072V31.4902H148.777V41H147.23L147.195 40.0596Z" fill="#8E8E8E"/>
<path d="M131.261 41.1758C129.972 41.1758 128.923 40.7539 128.114 39.9102C127.306 39.0605 126.901 37.9268 126.901 36.5088V36.21C126.901 35.2666 127.08 34.4258 127.438 33.6875C127.801 32.9434 128.305 32.3633 128.949 31.9473C129.6 31.5254 130.303 31.3145 131.059 31.3145C132.295 31.3145 133.256 31.7217 133.941 32.5361C134.627 33.3506 134.97 34.5166 134.97 36.0342V36.7109H128.527C128.551 37.6484 128.823 38.4072 129.345 38.9873C129.872 39.5615 130.54 39.8486 131.349 39.8486C131.923 39.8486 132.409 39.7314 132.808 39.4971C133.206 39.2627 133.555 38.9521 133.854 38.5654L134.847 39.3389C134.05 40.5635 132.854 41.1758 131.261 41.1758ZM131.059 32.6504C130.402 32.6504 129.852 32.8906 129.406 33.3711C128.961 33.8457 128.686 34.5137 128.58 35.375H133.344V35.252C133.297 34.4258 133.074 33.7871 132.676 33.3359C132.277 32.8789 131.738 32.6504 131.059 32.6504Z" fill="#8E8E8E"/>
<path d="M116.759 36.166C116.759 34.707 117.104 33.5352 117.796 32.6504C118.487 31.7598 119.393 31.3145 120.512 31.3145C121.625 31.3145 122.507 31.6953 123.157 32.457V27.5H124.783V41H123.289L123.21 39.9805C122.56 40.7773 121.654 41.1758 120.494 41.1758C119.393 41.1758 118.493 40.7246 117.796 39.8223C117.104 38.9199 116.759 37.7422 116.759 36.2891V36.166ZM118.385 36.3506C118.385 37.4287 118.607 38.2725 119.053 38.8818C119.498 39.4912 120.113 39.7959 120.898 39.7959C121.93 39.7959 122.683 39.333 123.157 38.4072V34.0391C122.671 33.1426 121.924 32.6943 120.916 32.6943C120.119 32.6943 119.498 33.002 119.053 33.6172C118.607 34.2324 118.385 35.1436 118.385 36.3506Z" fill="#8E8E8E"/>
<path d="M107.091 41.1758C105.802 41.1758 104.753 40.7539 103.944 39.9102C103.136 39.0605 102.731 37.9268 102.731 36.5088V36.21C102.731 35.2666 102.91 34.4258 103.268 33.6875C103.631 32.9434 104.135 32.3633 104.779 31.9473C105.43 31.5254 106.133 31.3145 106.889 31.3145C108.125 31.3145 109.086 31.7217 109.771 32.5361C110.457 33.3506 110.8 34.5166 110.8 36.0342V36.7109H104.357C104.381 37.6484 104.653 38.4072 105.175 38.9873C105.702 39.5615 106.37 39.8486 107.179 39.8486C107.753 39.8486 108.239 39.7314 108.638 39.4971C109.036 39.2627 109.385 38.9521 109.684 38.5654L110.677 39.3389C109.88 40.5635 108.685 41.1758 107.091 41.1758ZM106.889 32.6504C106.232 32.6504 105.682 32.8906 105.236 33.3711C104.791 33.8457 104.516 34.5137 104.41 35.375H109.174V35.252C109.127 34.4258 108.904 33.7871 108.506 33.3359C108.107 32.8789 107.568 32.6504 106.889 32.6504Z" fill="#8E8E8E"/>
<path d="M101.817 32.9492C101.571 32.9082 101.305 32.8877 101.018 32.8877C99.9512 32.8877 99.2275 33.3418 98.8467 34.25V41H97.2207V31.4902H98.8027L98.8291 32.5889C99.3623 31.7393 100.118 31.3145 101.097 31.3145C101.413 31.3145 101.653 31.3555 101.817 31.4375V32.9492Z" fill="#8E8E8E"/>
<path d="M95.1641 36.3506C95.1641 37.8037 94.8301 38.9727 94.1621 39.8574C93.4941 40.7363 92.5977 41.1758 91.4727 41.1758C90.2715 41.1758 89.3428 40.751 88.6865 39.9014L88.6074 41H87.1133V27.5H88.7393V32.5361C89.3955 31.7217 90.3008 31.3145 91.4551 31.3145C92.6094 31.3145 93.5146 31.751 94.1709 32.624C94.833 33.4971 95.1641 34.6924 95.1641 36.21V36.3506ZM93.5381 36.166C93.5381 35.0586 93.3242 34.2031 92.8965 33.5996C92.4688 32.9961 91.8535 32.6943 91.0508 32.6943C89.9785 32.6943 89.208 33.1924 88.7393 34.1885V38.3018C89.2373 39.2979 90.0137 39.7959 91.0684 39.7959C91.8477 39.7959 92.4541 39.4941 92.8877 38.8906C93.3213 38.2871 93.5381 37.3789 93.5381 36.166Z" fill="#8E8E8E"/>
<path d="M72.8574 31.4902L72.9014 32.5449C73.5986 31.7246 74.5391 31.3145 75.7227 31.3145C77.0527 31.3145 77.958 31.8242 78.4385 32.8438C78.7549 32.3867 79.165 32.0176 79.6689 31.7363C80.1787 31.4551 80.7793 31.3145 81.4707 31.3145C83.5566 31.3145 84.6172 32.4189 84.6523 34.6279V41H83.0264V34.7246C83.0264 34.0449 82.8711 33.5381 82.5605 33.2041C82.25 32.8643 81.7285 32.6943 80.9961 32.6943C80.3926 32.6943 79.8916 32.876 79.4932 33.2393C79.0947 33.5967 78.8633 34.0801 78.7988 34.6895V41H77.1641V34.7686C77.1641 33.3857 76.4873 32.6943 75.1338 32.6943C74.0674 32.6943 73.3379 33.1484 72.9453 34.0566V41H71.3193V31.4902H72.8574Z" fill="#8E8E8E"/>
<path d="M60.6318 36.1572C60.6318 35.2256 60.8135 34.3877 61.1768 33.6436C61.5459 32.8994 62.0557 32.3252 62.7061 31.9209C63.3623 31.5166 64.1094 31.3145 64.9473 31.3145C66.2422 31.3145 67.2881 31.7627 68.085 32.6592C68.8877 33.5557 69.2891 34.748 69.2891 36.2363V36.3506C69.2891 37.2764 69.1104 38.1084 68.7529 38.8467C68.4014 39.5791 67.8945 40.1504 67.2324 40.5605C66.5762 40.9707 65.8203 41.1758 64.9648 41.1758C63.6758 41.1758 62.6299 40.7275 61.8271 39.8311C61.0303 38.9346 60.6318 37.748 60.6318 36.2715V36.1572ZM62.2666 36.3506C62.2666 37.4053 62.5098 38.252 62.9961 38.8906C63.4883 39.5293 64.1445 39.8486 64.9648 39.8486C65.791 39.8486 66.4473 39.5264 66.9336 38.8818C67.4199 38.2314 67.6631 37.3232 67.6631 36.1572C67.6631 35.1143 67.4141 34.2705 66.916 33.626C66.4238 32.9756 65.7676 32.6504 64.9473 32.6504C64.1445 32.6504 63.4971 32.9697 63.0049 33.6084C62.5127 34.2471 62.2666 35.1611 62.2666 36.3506Z" fill="#8E8E8E"/>
<path d="M58.3203 41H56.624L50.1816 31.1387V41H48.4854V28.2031H50.1816L56.6416 38.1084V28.2031H58.3203V41Z" fill="#8E8E8E"/>
<path d="M0 126.5C0 107.446 15.4462 92 34.5 92H463.5C482.554 92 498 107.446 498 126.5C498 145.554 482.554 161 463.5 161H34.5C15.4462 161 0 145.554 0 126.5Z" fill="white"/>
<path fill-rule="evenodd" clip-rule="evenodd" d="M463.5 93H34.5C15.9985 93 1 107.998 1 126.5C1 145.002 15.9985 160 34.5 160H463.5C482.002 160 497 145.002 497 126.5C497 107.998 482.002 93 463.5 93ZM34.5 92C15.4462 92 0 107.446 0 126.5C0 145.554 15.4462 161 34.5 161H463.5C482.554 161 498 145.554 498 126.5C498 107.446 482.554 92 463.5 92H34.5Z" fill="#CBCBCB"/>
<path d="M136.209 133C136.115 132.812 136.039 132.479 135.98 131.998C135.225 132.783 134.322 133.176 133.273 133.176C132.336 133.176 131.565 132.912 130.962 132.385C130.364 131.852 130.065 131.178 130.065 130.363C130.065 129.373 130.44 128.605 131.19 128.061C131.946 127.51 133.007 127.234 134.372 127.234H135.954V126.487C135.954 125.919 135.784 125.468 135.444 125.134C135.104 124.794 134.604 124.624 133.941 124.624C133.361 124.624 132.875 124.771 132.482 125.063C132.09 125.356 131.894 125.711 131.894 126.127H130.259C130.259 125.652 130.426 125.195 130.76 124.756C131.1 124.311 131.557 123.959 132.131 123.701C132.711 123.443 133.347 123.314 134.038 123.314C135.134 123.314 135.992 123.59 136.613 124.141C137.234 124.686 137.557 125.438 137.58 126.399V130.776C137.58 131.649 137.691 132.344 137.914 132.859V133H136.209ZM133.511 131.761C134.021 131.761 134.504 131.629 134.961 131.365C135.418 131.102 135.749 130.759 135.954 130.337V128.386H134.68C132.688 128.386 131.691 128.969 131.691 130.135C131.691 130.645 131.861 131.043 132.201 131.33C132.541 131.617 132.978 131.761 133.511 131.761Z" fill="#8E8E8E"/>
<path d="M121.944 123.49L121.997 124.686C122.724 123.771 123.673 123.314 124.845 123.314C126.854 123.314 127.868 124.448 127.886 126.716V133H126.26V126.707C126.254 126.021 126.096 125.515 125.785 125.187C125.48 124.858 125.003 124.694 124.353 124.694C123.825 124.694 123.362 124.835 122.964 125.116C122.565 125.397 122.255 125.767 122.032 126.224V133H120.406V123.49H121.944ZM127.323 119.781C127.323 120.414 127.142 120.927 126.778 121.319C126.421 121.712 125.973 121.908 125.434 121.908C125.193 121.908 124.985 121.879 124.81 121.82C124.634 121.762 124.402 121.642 124.115 121.46C123.834 121.278 123.629 121.17 123.5 121.135C123.377 121.094 123.233 121.073 123.069 121.073C122.829 121.073 122.624 121.167 122.454 121.354C122.284 121.536 122.199 121.771 122.199 122.058L121.109 121.996C121.109 121.369 121.285 120.851 121.637 120.44C121.994 120.03 122.445 119.825 122.99 119.825C123.195 119.825 123.38 119.854 123.544 119.913C123.708 119.972 123.931 120.086 124.212 120.256C124.493 120.426 124.707 120.537 124.854 120.59C125.006 120.643 125.173 120.669 125.354 120.669C125.606 120.669 125.814 120.569 125.979 120.37C126.148 120.171 126.233 119.939 126.233 119.676L127.323 119.781Z" fill="#8E8E8E"/>
<path d="M114.808 133.176C113.519 133.176 112.47 132.754 111.661 131.91C110.853 131.061 110.448 129.927 110.448 128.509V128.21C110.448 127.267 110.627 126.426 110.984 125.688C111.348 124.943 111.852 124.363 112.496 123.947C113.146 123.525 113.85 123.314 114.605 123.314C115.842 123.314 116.803 123.722 117.488 124.536C118.174 125.351 118.517 126.517 118.517 128.034V128.711H112.074C112.098 129.648 112.37 130.407 112.892 130.987C113.419 131.562 114.087 131.849 114.896 131.849C115.47 131.849 115.956 131.731 116.354 131.497C116.753 131.263 117.102 130.952 117.4 130.565L118.394 131.339C117.597 132.563 116.401 133.176 114.808 133.176ZM114.605 124.65C113.949 124.65 113.398 124.891 112.953 125.371C112.508 125.846 112.232 126.514 112.127 127.375H116.891V127.252C116.844 126.426 116.621 125.787 116.223 125.336C115.824 124.879 115.285 124.65 114.605 124.65Z" fill="#8E8E8E"/>
<path d="M107.117 130.478C107.117 130.038 106.95 129.698 106.616 129.458C106.288 129.212 105.711 129.001 104.885 128.825C104.064 128.649 103.411 128.438 102.925 128.192C102.444 127.946 102.087 127.653 101.853 127.313C101.624 126.974 101.51 126.569 101.51 126.101C101.51 125.321 101.838 124.662 102.494 124.123C103.156 123.584 104 123.314 105.025 123.314C106.104 123.314 106.977 123.593 107.645 124.149C108.318 124.706 108.655 125.418 108.655 126.285H107.021C107.021 125.84 106.83 125.456 106.449 125.134C106.074 124.812 105.6 124.65 105.025 124.65C104.434 124.65 103.971 124.779 103.637 125.037C103.303 125.295 103.136 125.632 103.136 126.048C103.136 126.44 103.291 126.736 103.602 126.936C103.912 127.135 104.472 127.325 105.28 127.507C106.095 127.688 106.754 127.905 107.258 128.157C107.762 128.409 108.134 128.714 108.374 129.071C108.62 129.423 108.743 129.854 108.743 130.363C108.743 131.213 108.403 131.896 107.724 132.411C107.044 132.921 106.162 133.176 105.078 133.176C104.316 133.176 103.643 133.041 103.057 132.771C102.471 132.502 102.011 132.127 101.677 131.646C101.349 131.16 101.185 130.636 101.185 130.073H102.811C102.84 130.618 103.057 131.052 103.461 131.374C103.871 131.69 104.41 131.849 105.078 131.849C105.693 131.849 106.186 131.726 106.555 131.479C106.93 131.228 107.117 130.894 107.117 130.478Z" fill="#8E8E8E"/>
<path d="M97.6602 133C97.5664 132.812 97.4902 132.479 97.4316 131.998C96.6758 132.783 95.7734 133.176 94.7246 133.176C93.7871 133.176 93.0166 132.912 92.4131 132.385C91.8154 131.852 91.5166 131.178 91.5166 130.363C91.5166 129.373 91.8916 128.605 92.6416 128.061C93.3975 127.51 94.458 127.234 95.8232 127.234H97.4053V126.487C97.4053 125.919 97.2354 125.468 96.8955 125.134C96.5557 124.794 96.0547 124.624 95.3926 124.624C94.8125 124.624 94.3262 124.771 93.9336 125.063C93.541 125.356 93.3447 125.711 93.3447 126.127H91.71C91.71 125.652 91.877 125.195 92.2109 124.756C92.5508 124.311 93.0078 123.959 93.582 123.701C94.1621 123.443 94.7979 123.314 95.4893 123.314C96.585 123.314 97.4434 123.59 98.0645 124.141C98.6855 124.686 99.0078 125.438 99.0312 126.399V130.776C99.0312 131.649 99.1426 132.344 99.3652 132.859V133H97.6602ZM94.9619 131.761C95.4717 131.761 95.9551 131.629 96.4121 131.365C96.8691 131.102 97.2002 130.759 97.4053 130.337V128.386H96.1309C94.1387 128.386 93.1426 128.969 93.1426 130.135C93.1426 130.645 93.3125 131.043 93.6523 131.33C93.9922 131.617 94.4287 131.761 94.9619 131.761Z" fill="#8E8E8E"/>
<path d="M90.6377 124.949C90.3916 124.908 90.125 124.888 89.8379 124.888C88.7715 124.888 88.0479 125.342 87.667 126.25V133H86.041V123.49H87.623L87.6494 124.589C88.1826 123.739 88.9385 123.314 89.917 123.314C90.2334 123.314 90.4736 123.355 90.6377 123.438V124.949Z" fill="#8E8E8E"/>
<path d="M82.3584 121.188V123.49H84.1338V124.747H82.3584V130.645C82.3584 131.025 82.4375 131.312 82.5957 131.506C82.7539 131.693 83.0234 131.787 83.4043 131.787C83.5918 131.787 83.8496 131.752 84.1777 131.682V133C83.75 133.117 83.334 133.176 82.9297 133.176C82.2031 133.176 81.6553 132.956 81.2861 132.517C80.917 132.077 80.7324 131.453 80.7324 130.645V124.747H79.001V123.49H80.7324V121.188H82.3584Z" fill="#8E8E8E"/>
<path d="M71.7588 123.49L71.8115 124.686C72.5381 123.771 73.4873 123.314 74.6592 123.314C76.6689 123.314 77.6826 124.448 77.7002 126.716V133H76.0742V126.707C76.0684 126.021 75.9102 125.515 75.5996 125.187C75.2949 124.858 74.8174 124.694 74.167 124.694C73.6396 124.694 73.1768 124.835 72.7783 125.116C72.3799 125.397 72.0693 125.767 71.8467 126.224V133H70.2207V123.49H71.7588Z" fill="#8E8E8E"/>
<path d="M59.5244 128.157C59.5244 127.226 59.7061 126.388 60.0693 125.644C60.4385 124.899 60.9482 124.325 61.5986 123.921C62.2549 123.517 63.002 123.314 63.8398 123.314C65.1348 123.314 66.1807 123.763 66.9775 124.659C67.7803 125.556 68.1816 126.748 68.1816 128.236V128.351C68.1816 129.276 68.0029 130.108 67.6455 130.847C67.2939 131.579 66.7871 132.15 66.125 132.561C65.4688 132.971 64.7129 133.176 63.8574 133.176C62.5684 133.176 61.5225 132.728 60.7197 131.831C59.9229 130.935 59.5244 129.748 59.5244 128.271V128.157ZM61.1592 128.351C61.1592 129.405 61.4023 130.252 61.8887 130.891C62.3809 131.529 63.0371 131.849 63.8574 131.849C64.6836 131.849 65.3398 131.526 65.8262 130.882C66.3125 130.231 66.5557 129.323 66.5557 128.157C66.5557 127.114 66.3066 126.271 65.8086 125.626C65.3164 124.976 64.6602 124.65 63.8398 124.65C63.0371 124.65 62.3896 124.97 61.8975 125.608C61.4053 126.247 61.1592 127.161 61.1592 128.351Z" fill="#8E8E8E"/>
<path d="M57.8984 128.939C57.7402 130.293 57.2393 131.339 56.3955 132.077C55.5576 132.81 54.4414 133.176 53.0469 133.176C51.5352 133.176 50.3223 132.634 49.4082 131.55C48.5 130.466 48.0459 129.016 48.0459 127.199V125.969C48.0459 124.779 48.2568 123.733 48.6787 122.831C49.1064 121.929 49.71 121.237 50.4893 120.757C51.2686 120.271 52.1709 120.027 53.1963 120.027C54.5557 120.027 55.6455 120.408 56.4658 121.17C57.2861 121.926 57.7637 122.975 57.8984 124.316H56.2021C56.0557 123.297 55.7363 122.559 55.2441 122.102C54.7578 121.645 54.0752 121.416 53.1963 121.416C52.1182 121.416 51.2715 121.814 50.6562 122.611C50.0469 123.408 49.7422 124.542 49.7422 126.013V127.252C49.7422 128.641 50.0322 129.745 50.6123 130.565C51.1924 131.386 52.0039 131.796 53.0469 131.796C53.9844 131.796 54.7021 131.585 55.2002 131.163C55.7041 130.735 56.0381 129.994 56.2021 128.939H57.8984Z" fill="#8E8E8E"/>
<path d="M12 179C12 177.343 13.3431 176 15 176H33C34.6569 176 36 177.343 36 179V197C36 198.657 34.6569 200 33 200H15C13.3431 200 12 198.657 12 197V179Z" fill="#B465DA"/>
<path fill-rule="evenodd" clip-rule="evenodd" d="M32.7071 181.293C33.0976 181.683 33.0976 182.317 32.7071 182.707L21.7071 193.707C21.3166 194.098 20.6834 194.098 20.2929 193.707L15.2929 188.707C14.9024 188.317 14.9024 187.683 15.2929 187.293C15.6834 186.902 16.3166 186.902 16.7071 187.293L21 191.586L31.2929 181.293C31.6834 180.902 32.3166 180.902 32.7071 181.293Z" fill="white"/>
<path d="M139.261 194.176C137.972 194.176 136.923 193.754 136.114 192.91C135.306 192.061 134.901 190.927 134.901 189.509V189.21C134.901 188.267 135.08 187.426 135.438 186.688C135.801 185.943 136.305 185.363 136.949 184.947C137.6 184.525 138.303 184.314 139.059 184.314C140.295 184.314 141.256 184.722 141.941 185.536C142.627 186.351 142.97 187.517 142.97 189.034V189.711H136.527C136.551 190.648 136.823 191.407 137.345 191.987C137.872 192.562 138.54 192.849 139.349 192.849C139.923 192.849 140.409 192.731 140.808 192.497C141.206 192.263 141.555 191.952 141.854 191.565L142.847 192.339C142.05 193.563 140.854 194.176 139.261 194.176ZM139.059 185.65C138.402 185.65 137.852 185.891 137.406 186.371C136.961 186.846 136.686 187.514 136.58 188.375H141.344V188.252C141.297 187.426 141.074 186.787 140.676 186.336C140.277 185.879 139.738 185.65 139.059 185.65Z" fill="white"/>
<path d="M121.059 184.49L121.103 185.545C121.8 184.725 122.74 184.314 123.924 184.314C125.254 184.314 126.159 184.824 126.64 185.844C126.956 185.387 127.366 185.018 127.87 184.736C128.38 184.455 128.98 184.314 129.672 184.314C131.758 184.314 132.818 185.419 132.854 187.628V194H131.228V187.725C131.228 187.045 131.072 186.538 130.762 186.204C130.451 185.864 129.93 185.694 129.197 185.694C128.594 185.694 128.093 185.876 127.694 186.239C127.296 186.597 127.064 187.08 127 187.689V194H125.365V187.769C125.365 186.386 124.688 185.694 123.335 185.694C122.269 185.694 121.539 186.148 121.146 187.057V194H119.521V184.49H121.059Z" fill="white"/>
<path d="M118.026 185.949C117.78 185.908 117.514 185.888 117.227 185.888C116.16 185.888 115.437 186.342 115.056 187.25V194H113.43V184.49H115.012L115.038 185.589C115.571 184.739 116.327 184.314 117.306 184.314C117.622 184.314 117.862 184.355 118.026 184.438V185.949Z" fill="white"/>
<path d="M109.51 194C109.416 193.812 109.34 193.479 109.281 192.998C108.525 193.783 107.623 194.176 106.574 194.176C105.637 194.176 104.866 193.912 104.263 193.385C103.665 192.852 103.366 192.178 103.366 191.363C103.366 190.373 103.741 189.605 104.491 189.061C105.247 188.51 106.308 188.234 107.673 188.234H109.255V187.487C109.255 186.919 109.085 186.468 108.745 186.134C108.405 185.794 107.904 185.624 107.242 185.624C106.662 185.624 106.176 185.771 105.783 186.063C105.391 186.356 105.194 186.711 105.194 187.127H103.56C103.56 186.652 103.727 186.195 104.061 185.756C104.4 185.311 104.857 184.959 105.432 184.701C106.012 184.443 106.647 184.314 107.339 184.314C108.435 184.314 109.293 184.59 109.914 185.141C110.535 185.686 110.857 186.438 110.881 187.399V191.776C110.881 192.649 110.992 193.344 111.215 193.859V194H109.51ZM106.812 192.761C107.321 192.761 107.805 192.629 108.262 192.365C108.719 192.102 109.05 191.759 109.255 191.337V189.386H107.98C105.988 189.386 104.992 189.969 104.992 191.135C104.992 191.645 105.162 192.043 105.502 192.33C105.842 192.617 106.278 192.761 106.812 192.761Z" fill="white"/>
<path d="M93.083 189.166C93.083 187.707 93.4287 186.535 94.1201 185.65C94.8115 184.76 95.7168 184.314 96.8359 184.314C97.9492 184.314 98.8311 184.695 99.4814 185.457V180.5H101.107V194H99.6133L99.5342 192.98C98.8838 193.777 97.9785 194.176 96.8184 194.176C95.7168 194.176 94.8174 193.725 94.1201 192.822C93.4287 191.92 93.083 190.742 93.083 189.289V189.166ZM94.709 189.351C94.709 190.429 94.9316 191.272 95.377 191.882C95.8223 192.491 96.4375 192.796 97.2227 192.796C98.2539 192.796 99.0068 192.333 99.4814 191.407V187.039C98.9951 186.143 98.248 185.694 97.2402 185.694C96.4434 185.694 95.8223 186.002 95.377 186.617C94.9316 187.232 94.709 188.144 94.709 189.351Z" fill="white"/>
<path d="M92.1514 185.949C91.9053 185.908 91.6387 185.888 91.3516 185.888C90.2852 185.888 89.5615 186.342 89.1807 187.25V194H87.5547V184.49H89.1367L89.1631 185.589C89.6963 184.739 90.4521 184.314 91.4307 184.314C91.7471 184.314 91.9873 184.355 92.1514 184.438V185.949Z" fill="white"/>
<path d="M76.8584 189.157C76.8584 188.226 77.04 187.388 77.4033 186.644C77.7725 185.899 78.2822 185.325 78.9326 184.921C79.5889 184.517 80.3359 184.314 81.1738 184.314C82.4688 184.314 83.5146 184.763 84.3115 185.659C85.1143 186.556 85.5156 187.748 85.5156 189.236V189.351C85.5156 190.276 85.3369 191.108 84.9795 191.847C84.6279 192.579 84.1211 193.15 83.459 193.561C82.8027 193.971 82.0469 194.176 81.1914 194.176C79.9023 194.176 78.8564 193.728 78.0537 192.831C77.2568 191.935 76.8584 190.748 76.8584 189.271V189.157ZM78.4932 189.351C78.4932 190.405 78.7363 191.252 79.2227 191.891C79.7148 192.529 80.3711 192.849 81.1914 192.849C82.0176 192.849 82.6738 192.526 83.1602 191.882C83.6465 191.231 83.8896 190.323 83.8896 189.157C83.8896 188.114 83.6406 187.271 83.1426 186.626C82.6504 185.976 81.9941 185.65 81.1738 185.65C80.3711 185.65 79.7236 185.97 79.2314 186.608C78.7393 187.247 78.4932 188.161 78.4932 189.351Z" fill="white"/>
<path d="M71.6816 192.849C72.2617 192.849 72.7686 192.673 73.2021 192.321C73.6357 191.97 73.876 191.53 73.9229 191.003H75.4609C75.4316 191.548 75.2441 192.066 74.8984 192.559C74.5527 193.051 74.0898 193.443 73.5098 193.736C72.9355 194.029 72.3262 194.176 71.6816 194.176C70.3867 194.176 69.3555 193.745 68.5879 192.884C67.8262 192.017 67.4453 190.833 67.4453 189.333V189.061C67.4453 188.135 67.6152 187.312 67.9551 186.591C68.2949 185.87 68.7812 185.311 69.4141 184.912C70.0527 184.514 70.8057 184.314 71.6729 184.314C72.7393 184.314 73.624 184.634 74.3271 185.272C75.0361 185.911 75.4141 186.74 75.4609 187.76H73.9229C73.876 187.145 73.6416 186.641 73.2197 186.248C72.8037 185.85 72.2881 185.65 71.6729 185.65C70.8467 185.65 70.2051 185.949 69.748 186.547C69.2969 187.139 69.0713 187.997 69.0713 189.122V189.43C69.0713 190.525 69.2969 191.369 69.748 191.961C70.1992 192.553 70.8438 192.849 71.6816 192.849Z" fill="white"/>
<path d="M62.2686 194.176C60.9795 194.176 59.9307 193.754 59.1221 192.91C58.3135 192.061 57.9092 190.927 57.9092 189.509V189.21C57.9092 188.267 58.0879 187.426 58.4453 186.688C58.8086 185.943 59.3125 185.363 59.957 184.947C60.6074 184.525 61.3105 184.314 62.0664 184.314C63.3027 184.314 64.2637 184.722 64.9492 185.536C65.6348 186.351 65.9775 187.517 65.9775 189.034V189.711H59.5352C59.5586 190.648 59.8311 191.407 60.3525 191.987C60.8799 192.562 61.5479 192.849 62.3564 192.849C62.9307 192.849 63.417 192.731 63.8154 192.497C64.2139 192.263 64.5625 191.952 64.8613 191.565L65.8545 192.339C65.0576 193.563 63.8623 194.176 62.2686 194.176ZM62.0664 185.65C61.4102 185.65 60.8594 185.891 60.4141 186.371C59.9688 186.846 59.6934 187.514 59.5879 188.375H64.3516V188.252C64.3047 187.426 64.082 186.787 63.6836 186.336C63.2852 185.879 62.7461 185.65 62.0664 185.65Z" fill="white"/>
<path d="M52.1787 188.823H49.1729V194H47.4766V181.203H51.7129C53.1543 181.203 54.2617 181.531 55.0352 182.188C55.8145 182.844 56.2041 183.799 56.2041 185.053C56.2041 185.85 55.9873 186.544 55.5537 187.136C55.126 187.728 54.5283 188.17 53.7607 188.463L56.7666 193.895V194H54.9561L52.1787 188.823ZM49.1729 187.443H51.7656C52.6035 187.443 53.2686 187.227 53.7607 186.793C54.2588 186.359 54.5078 185.779 54.5078 185.053C54.5078 184.262 54.2705 183.655 53.7959 183.233C53.3271 182.812 52.6475 182.598 51.7568 182.592H49.1729V187.443Z" fill="white"/>
<path d="M468.938 190.238C468.938 189.459 469.034 188.838 469.228 188.375C469.421 187.912 469.802 187.405 470.37 186.854C470.944 186.298 471.308 185.902 471.46 185.668C471.694 185.311 471.812 184.924 471.812 184.508C471.812 183.957 471.674 183.538 471.398 183.251C471.129 182.958 470.73 182.812 470.203 182.812C469.699 182.812 469.292 182.955 468.981 183.242C468.677 183.523 468.524 183.907 468.524 184.394H466.389C466.4 183.356 466.752 182.536 467.443 181.933C468.141 181.329 469.061 181.027 470.203 181.027C471.381 181.027 472.298 181.326 472.954 181.924C473.616 182.521 473.947 183.356 473.947 184.429C473.947 185.384 473.502 186.324 472.611 187.25L471.53 188.313C471.144 188.753 470.944 189.395 470.933 190.238H468.938ZM468.788 192.972C468.788 192.626 468.896 192.348 469.113 192.137C469.33 191.92 469.623 191.812 469.992 191.812C470.367 191.812 470.663 191.923 470.88 192.146C471.097 192.362 471.205 192.638 471.205 192.972C471.205 193.294 471.1 193.563 470.889 193.78C470.678 193.997 470.379 194.105 469.992 194.105C469.605 194.105 469.307 193.997 469.096 193.78C468.891 193.563 468.788 193.294 468.788 192.972Z" fill="#B465DA"/>
<path d="M462.899 194C462.806 193.818 462.724 193.522 462.653 193.112C461.974 193.821 461.142 194.176 460.157 194.176C459.202 194.176 458.423 193.903 457.819 193.358C457.216 192.813 456.914 192.14 456.914 191.337C456.914 190.323 457.289 189.547 458.039 189.008C458.795 188.463 459.873 188.19 461.273 188.19H462.583V187.566C462.583 187.074 462.445 186.682 462.17 186.389C461.895 186.09 461.476 185.94 460.913 185.94C460.427 185.94 460.028 186.063 459.718 186.31C459.407 186.55 459.252 186.857 459.252 187.232H457.116C457.116 186.711 457.289 186.225 457.635 185.773C457.98 185.316 458.449 184.959 459.041 184.701C459.639 184.443 460.304 184.314 461.036 184.314C462.149 184.314 463.037 184.596 463.699 185.158C464.361 185.715 464.701 186.5 464.719 187.514V191.803C464.719 192.658 464.839 193.341 465.079 193.851V194H462.899ZM460.553 192.462C460.975 192.462 461.37 192.359 461.739 192.154C462.114 191.949 462.396 191.674 462.583 191.328V189.535H461.432C460.641 189.535 460.046 189.673 459.647 189.948C459.249 190.224 459.05 190.613 459.05 191.117C459.05 191.527 459.185 191.855 459.454 192.102C459.729 192.342 460.096 192.462 460.553 192.462Z" fill="#B465DA"/>
<path d="M446.657 189.175C446.657 187.71 446.997 186.535 447.677 185.65C448.356 184.76 449.268 184.314 450.41 184.314C451.418 184.314 452.232 184.666 452.854 185.369V180.5H454.989V194H453.056L452.95 193.016C452.312 193.789 451.459 194.176 450.393 194.176C449.279 194.176 448.377 193.728 447.686 192.831C447 191.935 446.657 190.716 446.657 189.175ZM448.793 189.359C448.793 190.326 448.978 191.082 449.347 191.627C449.722 192.166 450.252 192.436 450.938 192.436C451.811 192.436 452.449 192.046 452.854 191.267V187.206C452.461 186.444 451.828 186.063 450.955 186.063C450.264 186.063 449.73 186.339 449.355 186.89C448.98 187.435 448.793 188.258 448.793 189.359Z" fill="#B465DA"/>
<path d="M443.001 194C442.907 193.818 442.825 193.522 442.755 193.112C442.075 193.821 441.243 194.176 440.259 194.176C439.304 194.176 438.524 193.903 437.921 193.358C437.317 192.813 437.016 192.14 437.016 191.337C437.016 190.323 437.391 189.547 438.141 189.008C438.896 188.463 439.975 188.19 441.375 188.19H442.685V187.566C442.685 187.074 442.547 186.682 442.271 186.389C441.996 186.09 441.577 185.94 441.015 185.94C440.528 185.94 440.13 186.063 439.819 186.31C439.509 186.55 439.354 186.857 439.354 187.232H437.218C437.218 186.711 437.391 186.225 437.736 185.773C438.082 185.316 438.551 184.959 439.143 184.701C439.74 184.443 440.405 184.314 441.138 184.314C442.251 184.314 443.139 184.596 443.801 185.158C444.463 185.715 444.803 186.5 444.82 187.514V191.803C444.82 192.658 444.94 193.341 445.181 193.851V194H443.001ZM440.654 192.462C441.076 192.462 441.472 192.359 441.841 192.154C442.216 191.949 442.497 191.674 442.685 191.328V189.535H441.533C440.742 189.535 440.147 189.673 439.749 189.948C439.351 190.224 439.151 190.613 439.151 191.117C439.151 191.527 439.286 191.855 439.556 192.102C439.831 192.342 440.197 192.462 440.654 192.462Z" fill="#B465DA"/>
<path d="M426.759 189.175C426.759 187.71 427.099 186.535 427.778 185.65C428.458 184.76 429.369 184.314 430.512 184.314C431.52 184.314 432.334 184.666 432.955 185.369V180.5H435.091V194H433.157L433.052 193.016C432.413 193.789 431.561 194.176 430.494 194.176C429.381 194.176 428.479 193.728 427.787 192.831C427.102 191.935 426.759 190.716 426.759 189.175ZM428.895 189.359C428.895 190.326 429.079 191.082 429.448 191.627C429.823 192.166 430.354 192.436 431.039 192.436C431.912 192.436 432.551 192.046 432.955 191.267V187.206C432.562 186.444 431.93 186.063 431.057 186.063C430.365 186.063 429.832 186.339 429.457 186.89C429.082 187.435 428.895 188.258 428.895 189.359Z" fill="#B465DA"/>
<path d="M424.825 194H422.689V184.49H424.825V194ZM422.558 182.021C422.558 181.692 422.66 181.42 422.865 181.203C423.076 180.986 423.375 180.878 423.762 180.878C424.148 180.878 424.447 180.986 424.658 181.203C424.869 181.42 424.975 181.692 424.975 182.021C424.975 182.343 424.869 182.612 424.658 182.829C424.447 183.04 424.148 183.146 423.762 183.146C423.375 183.146 423.076 183.04 422.865 182.829C422.66 182.612 422.558 182.343 422.558 182.021Z" fill="#B465DA"/>
<path d="M416.994 191.293L419.007 184.49H421.213L417.917 194H416.062L412.74 184.49H414.955L416.994 191.293Z" fill="#B465DA"/>
<path d="M411.308 194H409.172V180.5H411.308V194Z" fill="#B465DA"/>
<path d="M398.388 189.157C398.388 188.226 398.572 187.388 398.941 186.644C399.311 185.894 399.829 185.319 400.497 184.921C401.165 184.517 401.933 184.314 402.8 184.314C404.083 184.314 405.123 184.728 405.92 185.554C406.723 186.38 407.156 187.476 407.221 188.841L407.229 189.342C407.229 190.279 407.048 191.117 406.685 191.855C406.327 192.594 405.812 193.165 405.138 193.569C404.47 193.974 403.696 194.176 402.817 194.176C401.476 194.176 400.4 193.73 399.592 192.84C398.789 191.943 398.388 190.751 398.388 189.263V189.157ZM400.523 189.342C400.523 190.32 400.726 191.088 401.13 191.645C401.534 192.195 402.097 192.471 402.817 192.471C403.538 192.471 404.098 192.189 404.496 191.627C404.9 191.064 405.103 190.241 405.103 189.157C405.103 188.196 404.895 187.435 404.479 186.872C404.068 186.31 403.509 186.028 402.8 186.028C402.103 186.028 401.549 186.307 401.139 186.863C400.729 187.414 400.523 188.24 400.523 189.342Z" fill="#B465DA"/>
<path d="M390.249 194C390.155 193.818 390.073 193.522 390.003 193.112C389.323 193.821 388.491 194.176 387.507 194.176C386.552 194.176 385.772 193.903 385.169 193.358C384.565 192.813 384.264 192.14 384.264 191.337C384.264 190.323 384.639 189.547 385.389 189.008C386.145 188.463 387.223 188.19 388.623 188.19H389.933V187.566C389.933 187.074 389.795 186.682 389.52 186.389C389.244 186.09 388.825 185.94 388.263 185.94C387.776 185.94 387.378 186.063 387.067 186.31C386.757 186.55 386.602 186.857 386.602 187.232H384.466C384.466 186.711 384.639 186.225 384.984 185.773C385.33 185.316 385.799 184.959 386.391 184.701C386.988 184.443 387.653 184.314 388.386 184.314C389.499 184.314 390.387 184.596 391.049 185.158C391.711 185.715 392.051 186.5 392.068 187.514V191.803C392.068 192.658 392.188 193.341 392.429 193.851V194H390.249ZM387.902 192.462C388.324 192.462 388.72 192.359 389.089 192.154C389.464 191.949 389.745 191.674 389.933 191.328V189.535H388.781C387.99 189.535 387.396 189.673 386.997 189.948C386.599 190.224 386.399 190.613 386.399 191.117C386.399 191.527 386.534 191.855 386.804 192.102C387.079 192.342 387.445 192.462 387.902 192.462Z" fill="#B465DA"/>
<path d="M376.529 184.49L376.591 185.589C377.294 184.739 378.217 184.314 379.359 184.314C381.34 184.314 382.348 185.448 382.383 187.716V194H380.247V187.839C380.247 187.235 380.115 186.79 379.852 186.503C379.594 186.21 379.169 186.063 378.577 186.063C377.716 186.063 377.074 186.453 376.652 187.232V194H374.517V184.49H376.529ZM381.715 180.693C381.715 181.338 381.527 181.874 381.152 182.302C380.783 182.729 380.317 182.943 379.755 182.943C379.526 182.943 379.327 182.92 379.157 182.873C378.993 182.82 378.756 182.706 378.445 182.53C378.141 182.354 377.924 182.249 377.795 182.214C377.672 182.179 377.534 182.161 377.382 182.161C377.159 182.161 376.969 182.246 376.811 182.416C376.658 182.58 376.582 182.797 376.582 183.066L375.272 182.996C375.272 182.352 375.457 181.81 375.826 181.37C376.201 180.931 376.667 180.711 377.224 180.711C377.558 180.711 377.959 180.843 378.428 181.106C378.902 181.37 379.292 181.502 379.597 181.502C379.819 181.502 380.01 181.42 380.168 181.256C380.326 181.086 380.405 180.863 380.405 180.588L381.715 180.693Z" fill="#B465DA"/>
<path d="M369.067 194.176C367.714 194.176 366.615 193.751 365.771 192.901C364.934 192.046 364.515 190.909 364.515 189.491V189.228C364.515 188.278 364.696 187.432 365.06 186.688C365.429 185.938 365.944 185.354 366.606 184.938C367.269 184.522 368.007 184.314 368.821 184.314C370.116 184.314 371.115 184.728 371.818 185.554C372.527 186.38 372.882 187.549 372.882 189.061V189.922H366.668C366.732 190.707 366.993 191.328 367.45 191.785C367.913 192.242 368.493 192.471 369.19 192.471C370.169 192.471 370.966 192.075 371.581 191.284L372.732 192.383C372.352 192.951 371.842 193.394 371.203 193.71C370.57 194.021 369.858 194.176 369.067 194.176ZM368.812 186.028C368.227 186.028 367.752 186.233 367.389 186.644C367.031 187.054 366.803 187.625 366.703 188.357H370.772V188.199C370.726 187.484 370.535 186.945 370.201 186.582C369.867 186.213 369.404 186.028 368.812 186.028Z" fill="#B465DA"/>
<path d="M360.911 191.416C360.911 191.035 360.753 190.745 360.437 190.546C360.126 190.347 359.607 190.171 358.881 190.019C358.154 189.866 357.548 189.673 357.062 189.438C355.995 188.923 355.462 188.176 355.462 187.197C355.462 186.377 355.808 185.691 356.499 185.141C357.19 184.59 358.069 184.314 359.136 184.314C360.272 184.314 361.189 184.596 361.887 185.158C362.59 185.721 362.941 186.45 362.941 187.347H360.806C360.806 186.937 360.653 186.597 360.349 186.327C360.044 186.052 359.64 185.914 359.136 185.914C358.667 185.914 358.283 186.022 357.984 186.239C357.691 186.456 357.545 186.746 357.545 187.109C357.545 187.438 357.683 187.692 357.958 187.874C358.233 188.056 358.79 188.24 359.628 188.428C360.466 188.609 361.122 188.829 361.597 189.087C362.077 189.339 362.432 189.644 362.66 190.001C362.895 190.358 363.012 190.792 363.012 191.302C363.012 192.157 362.657 192.852 361.948 193.385C361.239 193.912 360.311 194.176 359.162 194.176C358.383 194.176 357.688 194.035 357.079 193.754C356.47 193.473 355.995 193.086 355.655 192.594C355.315 192.102 355.146 191.571 355.146 191.003H357.22C357.249 191.507 357.439 191.896 357.791 192.172C358.143 192.441 358.608 192.576 359.188 192.576C359.751 192.576 360.179 192.471 360.472 192.26C360.765 192.043 360.911 191.762 360.911 191.416Z" fill="#B465DA"/>
<path d="M351.524 194C351.431 193.818 351.349 193.522 351.278 193.112C350.599 193.821 349.767 194.176 348.782 194.176C347.827 194.176 347.048 193.903 346.444 193.358C345.841 192.813 345.539 192.14 345.539 191.337C345.539 190.323 345.914 189.547 346.664 189.008C347.42 188.463 348.498 188.19 349.898 188.19H351.208V187.566C351.208 187.074 351.07 186.682 350.795 186.389C350.52 186.09 350.101 185.94 349.538 185.94C349.052 185.94 348.653 186.063 348.343 186.31C348.032 186.55 347.877 186.857 347.877 187.232H345.741C345.741 186.711 345.914 186.225 346.26 185.773C346.605 185.316 347.074 184.959 347.666 184.701C348.264 184.443 348.929 184.314 349.661 184.314C350.774 184.314 351.662 184.596 352.324 185.158C352.986 185.715 353.326 186.5 353.344 187.514V191.803C353.344 192.658 353.464 193.341 353.704 193.851V194H351.524ZM349.178 192.462C349.6 192.462 349.995 192.359 350.364 192.154C350.739 191.949 351.021 191.674 351.208 191.328V189.535H350.057C349.266 189.535 348.671 189.673 348.272 189.948C347.874 190.224 347.675 190.613 347.675 191.117C347.675 191.527 347.81 191.855 348.079 192.102C348.354 192.342 348.721 192.462 349.178 192.462Z" fill="#B465DA"/>
<path d="M344.757 186.441C344.476 186.395 344.186 186.371 343.887 186.371C342.908 186.371 342.249 186.746 341.909 187.496V194H339.773V184.49H341.812L341.865 185.554C342.381 184.728 343.096 184.314 344.01 184.314C344.314 184.314 344.566 184.355 344.766 184.438L344.757 186.441Z" fill="#B465DA"/>
<path d="M336.46 182.179V184.49H338.139V186.072H336.46V191.381C336.46 191.744 336.53 192.008 336.671 192.172C336.817 192.33 337.075 192.409 337.444 192.409C337.69 192.409 337.939 192.38 338.191 192.321V193.974C337.705 194.108 337.236 194.176 336.785 194.176C335.145 194.176 334.324 193.271 334.324 191.46V186.072H332.76V184.49H334.324V182.179H336.46Z" fill="#B465DA"/>
<path d="M325.746 184.49L325.808 185.589C326.511 184.739 327.434 184.314 328.576 184.314C330.557 184.314 331.564 185.448 331.6 187.716V194H329.464V187.839C329.464 187.235 329.332 186.79 329.068 186.503C328.811 186.21 328.386 186.063 327.794 186.063C326.933 186.063 326.291 186.453 325.869 187.232V194H323.733V184.49H325.746Z" fill="#B465DA"/>
<path d="M313.116 189.157C313.116 188.226 313.301 187.388 313.67 186.644C314.039 185.894 314.558 185.319 315.226 184.921C315.894 184.517 316.661 184.314 317.528 184.314C318.812 184.314 319.852 184.728 320.648 185.554C321.451 186.38 321.885 187.476 321.949 188.841L321.958 189.342C321.958 190.279 321.776 191.117 321.413 191.855C321.056 192.594 320.54 193.165 319.866 193.569C319.198 193.974 318.425 194.176 317.546 194.176C316.204 194.176 315.129 193.73 314.32 192.84C313.518 191.943 313.116 190.751 313.116 189.263V189.157ZM315.252 189.342C315.252 190.32 315.454 191.088 315.858 191.645C316.263 192.195 316.825 192.471 317.546 192.471C318.267 192.471 318.826 192.189 319.225 191.627C319.629 191.064 319.831 190.241 319.831 189.157C319.831 188.196 319.623 187.435 319.207 186.872C318.797 186.31 318.237 186.028 317.528 186.028C316.831 186.028 316.277 186.307 315.867 186.863C315.457 187.414 315.252 188.24 315.252 189.342Z" fill="#B465DA"/>
<path d="M308.001 192.471C308.534 192.471 308.977 192.315 309.328 192.005C309.68 191.694 309.867 191.311 309.891 190.854H311.903C311.88 191.445 311.695 191.999 311.35 192.515C311.004 193.024 310.535 193.429 309.943 193.728C309.352 194.026 308.713 194.176 308.027 194.176C306.697 194.176 305.643 193.745 304.863 192.884C304.084 192.022 303.694 190.833 303.694 189.315V189.096C303.694 187.648 304.081 186.491 304.854 185.624C305.628 184.751 306.683 184.314 308.019 184.314C309.149 184.314 310.069 184.646 310.778 185.308C311.493 185.964 311.868 186.828 311.903 187.9H309.891C309.867 187.355 309.68 186.907 309.328 186.556C308.982 186.204 308.54 186.028 308.001 186.028C307.31 186.028 306.776 186.28 306.401 186.784C306.026 187.282 305.836 188.041 305.83 189.061V189.403C305.83 190.435 306.015 191.205 306.384 191.715C306.759 192.219 307.298 192.471 308.001 192.471Z" fill="#B465DA"/>
</svg>
